<svg width="32" height="32" viewBox="0 0 32 32" fill="none" xmlns="http://www.w3.org/2000/svg"><circle cx="16" cy="16" r="16" fill="#E8F0FF"></circle><g clip-path="url(#clip0_41_78)"><path d="M15.992 7.66675C11.392 7.66675 7.66699 11.4001 7.66699 16.0001C7.66699 20.6001 11.392 24.3334 15.992 24.3334C20.6003 24.3334 24.3337 20.6001 24.3337 16.0001C24.3337 11.4001 20.6003 7.66675 15.992 7.66675ZM16.0003 22.6667C12.317 22.6667 9.33366 19.6834 9.33366 16.0001C9.33366 12.3167 12.317 9.33341 16.0003 9.33341C19.6837 9.33341 22.667 12.3167 22.667 16.0001C22.667 19.6834 19.6837 22.6667 16.0003 22.6667ZM15.817 11.8334H15.767C15.4337 11.8334 15.167 12.1001 15.167 12.4334V16.3667C15.167 16.6584 15.317 16.9334 15.5753 17.0834L19.0337 19.1584C19.317 19.3251 19.6837 19.2417 19.8503 18.9584C20.0253 18.6751 19.9337 18.3001 19.642 18.1334L16.417 16.2167V12.4334C16.417 12.1001 16.1503 11.8334 15.817 11.8334Z" fill="#376CBB"></path></g><defs><clipPath id="clip0_41_78"><rect width="20" height="20" fill="white" transform="translate(6 6)"></rect></clipPath></defs></svg>