<svg width="27" height="27" viewBox="0 0 27 27" fill="none" xmlns="http://www.w3.org/2000/svg"><rect width="27" height="27" rx="13.5" fill="#EDF8EB"></rect><path d="M19.0716 14.0901C19.1115 14.1125 19.1195 14.1601 19.1211 14.1782L19.1215 14.1854L19.0771 17.0458C19.0771 18.1868 18.1931 19.1172 17.0799 19.1742L16.9715 19.177H10.2998C9.17254 19.177 8.25326 18.2822 8.19691 17.1555L8.19417 17.0458L8.15538 14.1854C8.15538 14.1854 8.15538 14.1181 8.20525 14.0901C8.24958 14.062 8.30499 14.0957 8.31053 14.1013C9.42986 14.8528 10.7764 15.352 12.1894 15.5595C12.3889 15.5876 12.5884 15.4586 12.6438 15.2566C12.7581 14.8255 13.111 14.5324 13.5428 14.4974L13.6301 14.4939H13.6467C14.1177 14.4939 14.5112 14.7967 14.6331 15.2566C14.6885 15.4586 14.888 15.5876 15.0875 15.5595C16.5005 15.352 17.847 14.8528 18.9663 14.1013C18.9663 14.1013 18.9774 14.0957 18.9885 14.0901C19.0107 14.0789 19.0439 14.0732 19.0716 14.0901ZM13.6357 15.2959C13.4274 15.2959 13.2517 15.4561 13.2239 15.66L13.2201 15.7166V16.4401C13.2201 16.6756 13.4085 16.8607 13.6357 16.8607C13.849 16.8607 14.0204 16.7052 14.0475 16.4978L14.0513 16.4401V15.7166C14.0513 15.4866 13.8684 15.2959 13.6357 15.2959ZM14.3505 8.1001C15.1817 8.1001 15.8632 8.73386 15.9685 9.5471H17.0657C18.2293 9.5471 19.1769 10.5062 19.1769 11.684C19.1769 11.684 19.1436 12.1826 19.1326 12.8769C19.1315 12.9319 19.1049 12.9857 19.0611 13.0182C18.7945 13.2151 18.5507 13.3777 18.5286 13.3889C17.6087 14.0059 16.5398 14.44 15.4011 14.6559C15.3268 14.6705 15.2537 14.6318 15.216 14.5656C14.8968 14.0126 14.3006 13.6526 13.6357 13.6526C12.9751 13.6526 12.3734 14.0087 12.0448 14.5623C12.0065 14.6273 11.9345 14.6649 11.8608 14.6509C10.7315 14.4344 9.6626 14.0008 8.74829 13.3946L8.21633 13.0244C8.172 12.9964 8.1443 12.9459 8.1443 12.8898C8.12767 12.6038 8.09997 11.684 8.09997 11.684C8.09997 10.5062 9.04752 9.5471 10.2112 9.5471H11.3028C11.4081 8.73386 12.0897 8.1001 12.9208 8.1001H14.3505ZM14.3505 8.94138H12.9208C12.5496 8.94138 12.2337 9.19937 12.1451 9.5471H15.1262C15.0376 9.19937 14.7217 8.94138 14.3505 8.94138Z" fill="#5F9155"></path></svg>