<svg width="16" height="16" viewBox="0 0 16 16" fill="none" xmlns="http://www.w3.org/2000/svg">
<path d="M13.5916 13.6417H13.6416V13.5917V12.5834C13.6416 12.491 13.5863 12.3941 13.5001 12.2987C13.4125 12.2018 13.2862 12.0988 13.1285 11.9935C12.813 11.7829 12.3657 11.5591 11.8347 11.3543C10.7727 10.9446 9.36862 10.6084 7.99996 10.6084C6.6313 10.6084 5.22723 10.9446 4.1652 11.3543C3.63419 11.5591 3.18689 11.7829 2.87138 11.9935C2.71377 12.0988 2.58737 12.2018 2.49979 12.2987C2.41366 12.3941 2.35829 12.491 2.35829 12.5834V13.5917V13.6417H2.40829H13.5916ZM9.97496 4.33341C9.97496 3.24247 9.09091 2.35841 7.99996 2.35841C6.90901 2.35841 6.02496 3.24247 6.02496 4.33341C6.02496 5.42436 6.90901 6.30842 7.99996 6.30842C9.09091 6.30842 9.97496 5.42436 9.97496 4.33341ZM4.38329 4.33341C4.38329 2.3352 6.00174 0.716748 7.99996 0.716748C9.99818 0.716748 11.6166 2.3352 11.6166 4.33341C11.6166 6.33163 9.99818 7.95008 7.99996 7.95008C6.00174 7.95008 4.38329 6.33163 4.38329 4.33341ZM0.716626 12.5834C0.716626 11.9922 1.01239 11.4706 1.50219 11.0186C1.99233 10.5662 2.67343 10.1868 3.43407 9.88212C4.95545 9.27266 6.78246 8.96675 7.99996 8.96675C9.21746 8.96675 11.0445 9.27266 12.5658 9.88212C13.3265 10.1868 14.0076 10.5662 14.4977 11.0186C14.9875 11.4706 15.2833 11.9922 15.2833 12.5834V14.4167C15.2833 14.8933 14.8932 15.2834 14.4166 15.2834H1.58329C1.10674 15.2834 0.716626 14.8933 0.716626 14.4167V12.5834Z" fill="#376CBB" stroke="#E8F0FF" stroke-width="0.1"/>
</svg>
